# xmcd CD database file
#
# Track frame offsets:
#	150
#	15357
#	36532
#	53950
#	67905
#	83770
#	95355
#	108562
#	127257
#	141365
#	156692
#	175422
#	189130
#	201385
#	221272
#
# Disc length: 3109 seconds
#
# Revision: 0
# Processed by: cddbd v1.4PL0 Copyright (c) Steve Scherf et al.
# Submitted via: CDex 1.50
#
DISCID=db0c230f
DTITLE=Andre Previn - Previn At Sunset
DYEAR=1900
DGENRE=Jazz
TTITLE0=I Got It Bad, And That Ain't Good
TTITLE1=Body And Soul
TTITLE2=Sunset In Blue
TTITLE3=All The Things You Are
TTITLE4=Something To Live For
TTITLE5=Good Enough To Keep
TTITLE6=Calfornia Clipper
TTITLE7=How High The Moon
TTITLE8=Take The A Train
TTITLE9=Subtle Slough
TTITLE10=That Old Blue Magic
TTITLE11=Blue Skies
TTITLE12=I Found A New Baby
TTITLE13=Variations On A Theme
TTITLE14=Mulholland Drive
EXTD=
EXTT0=
EXTT1=
EXTT2=
EXTT3=
EXTT4=
EXTT5=
EXTT6=
EXTT7=
EXTT8=
EXTT9=
EXTT10=
EXTT11=
EXTT12=
EXTT13=
EXTT14=
PLAYORDER=
